<svg width="25" height="18" viewBox="0 0 25 18" xmlns="http://www.w3.org/2000/svg">
<path d="M24.7074 1.70745L8.70745 17.7074C8.61457 17.8004 8.50428 17.8742 8.38289 17.9245C8.26149 17.9748 8.13136 18.0007 7.99995 18.0007C7.86853 18.0007 7.7384 17.9748 7.61701 17.9245C7.49561 17.8742 7.38532 17.8004 7.29245 17.7074L0.292446 10.7074C0.104805 10.5198 -0.000610352 10.2653 -0.000610352 9.99995C-0.000610352 9.73458 0.104805 9.48009 0.292446 9.29245C0.480086 9.1048 0.734582 8.99939 0.999946 8.99939C1.26531 8.99939 1.5198 9.1048 1.70745 9.29245L7.99995 15.5862L23.2924 0.292445C23.4801 0.104805 23.7346 -0.000610354 23.9999 -0.000610352C24.2653 -0.00061035 24.5198 0.104805 24.7074 0.292445C24.8951 0.480086 25.0005 0.734582 25.0005 0.999946C25.0005 1.26531 24.8951 1.51981 24.7074 1.70745Z"/>
</svg>
